<svg xmlns="http://www.w3.org/2000/svg" width="1024" height="1024" viewBox="0 0 1024 1024" version="1.1"><path d="M 377.924 154.579 L 375.500 157.159 375.224 193.329 L 374.948 229.500 383.879 238.620 C 388.791 243.636, 394.765 249.067, 397.155 250.688 L 401.500 253.635 409.060 248.367 C 425.417 236.970, 446.098 228.265, 471.665 222.014 C 480.924 219.751, 489.512 217.481, 490.750 216.971 L 493 216.043 493 187.972 C 493 158.177, 492.617 155.471, 488.055 153.030 C 486.805 152.361, 467.604 152, 433.240 152 L 380.349 152 377.924 154.579 M 666.594 216.607 C 644.176 220.655, 632.460 226.828, 613.858 244.391 C 595.196 262.010, 567 290.446, 567 291.648 C 567 292.353, 569.813 295.775, 573.250 299.250 C 596.474 322.732, 608.135 335.082, 607.841 335.882 C 607.116 337.852, 531.120 414, 529.879 414 C 528.437 414, 511.769 397.339, 464.103 348.250 C 446.879 330.512, 432.222 316, 431.531 316 C 429.942 316, 413.754 332.783, 414.182 333.987 C 414.555 335.035, 427.753 348.613, 475.283 396.846 C 499.979 421.908, 510.025 432.741, 509.807 434.080 C 509.638 435.119, 496.225 449.369, 480 465.747 C 384.434 562.212, 392 554.229, 392 558.599 C 392 560.775, 392.734 563.603, 393.631 564.883 C 396.791 569.396, 406.640 571.488, 412.390 568.868 C 413.756 568.246, 440.593 541.921, 472.027 510.368 C 503.461 478.816, 529.674 453, 530.276 453 C 530.879 453, 538.527 460.313, 547.273 469.250 C 573.812 496.372, 643.222 566.009, 646.283 568.585 C 649.694 571.455, 655.804 571.830, 659.518 569.397 C 662.723 567.296, 665.589 562.442, 666.438 557.676 C 667.242 553.155, 670.868 557.138, 609.500 495.131 C 588.050 473.457, 565.663 450.827, 559.750 444.842 C 553.837 438.856, 549 433.539, 549 433.025 C 549 431.468, 625.267 355, 626.820 355 C 627.615 355, 635.809 362.425, 645.030 371.500 C 663.312 389.494, 664.037 389.899, 670.027 385.480 C 675.819 381.207, 718.088 338.996, 725.584 330 C 735.749 317.800, 741.099 307.449, 742.560 297.154 C 742.845 295.144, 743.347 292.150, 743.675 290.500 C 744.003 288.850, 744.219 281.793, 744.154 274.818 C 744.064 265.102, 743.453 259.667, 741.543 251.583 C 736.734 231.234, 731.530 225.343, 713.328 219.641 C 698.567 215.018, 681.522 213.911, 666.594 216.607 M 485.500 232.603 C 484.400 232.832, 481.025 233.520, 478 234.131 C 454.362 238.908, 424.399 253.900, 406.910 269.700 C 404.901 271.515, 402.606 273, 401.809 273 C 401.012 273, 398.482 271.392, 396.186 269.427 L 392.013 265.855 389.250 267.822 C 387.731 268.904, 382.308 274.138, 377.200 279.453 L 367.912 289.117 369.410 292.119 C 370.906 295.120, 370.904 295.125, 364.594 301.811 C 355.923 310.998, 353.364 314.085, 345.635 324.683 C 327.082 350.124, 312.752 376.989, 306.856 397.379 C 303.964 407.384, 303.541 410.684, 304.630 414.750 C 305.525 418.090, 307.107 417.456, 310.965 412.211 C 316.772 404.317, 337.982 379.230, 350.035 366 C 369.027 345.153, 391.177 322, 392.130 322 C 392.624 322, 395.582 324.080, 398.703 326.622 L 404.378 331.245 409.906 324.872 C 412.946 321.368, 418.711 315.172, 422.717 311.105 C 426.722 307.038, 430 303.277, 430 302.749 C 430 302.221, 428.875 300.452, 427.500 298.818 C 426.125 297.184, 425 295.476, 425 295.023 C 425 293.938, 435.167 284.228, 447 274.010 C 457.853 264.639, 484.631 245.574, 496.791 238.560 C 501.310 235.953, 504.792 233.473, 504.529 233.047 C 504.027 232.235, 488.949 231.883, 485.500 232.603 M 352.750 249.993 C 345.405 255.450, 342 258.605, 342 259.956 C 342 262.424, 356.491 278.966, 359.500 279.933 C 360.050 280.110, 361.074 280.475, 361.776 280.744 C 362.488 281.017, 367.663 276.426, 373.473 270.367 C 383.330 260.089, 383.818 259.383, 382.481 257.336 C 379.681 253.051, 367.458 242.022, 365.500 242.014 C 364.400 242.010, 358.663 245.600, 352.750 249.993 M 493.145 257.525 C 480.610 264.657, 453.579 283.793, 447.313 289.972 C 444.177 293.064, 444.135 293.230, 444.696 300.307 C 445.010 304.263, 445.564 308.067, 445.928 308.759 C 446.292 309.452, 463.243 327.002, 483.597 347.759 C 503.951 368.517, 522.475 387.525, 524.762 390 L 528.920 394.500 558.460 365.006 C 574.707 348.785, 588 335.103, 588 334.603 C 588 334.103, 578.702 324.329, 567.337 312.884 C 547.494 292.900, 546.492 292.050, 542.087 291.488 C 530.682 290.033, 521.549 286.513, 511.018 279.512 C 507.285 277.030, 503.729 275, 503.116 275 C 502.502 275, 501.966 273.988, 501.924 272.750 C 501.882 271.512, 500.870 267.023, 499.674 262.774 L 497.500 255.048 493.145 257.525 M 647.353 309.193 C 635.615 320.849, 625.727 331.285, 625.378 332.384 C 624.916 333.839, 625.598 335.145, 627.888 337.191 C 633.740 342.420, 634.311 342.071, 657.196 319.281 C 672.530 304.010, 678 297.943, 678 296.205 C 678 293.464, 672.954 288, 670.423 288 C 669.471 288, 659.090 297.537, 647.353 309.193 M 745.273 328.750 C 744.201 329.712, 737.651 336.800, 730.717 344.500 C 716.793 359.962, 683.053 393.033, 676 398.133 C 672.042 400.994, 670.708 401.393, 664.928 401.443 C 656.874 401.513, 653.614 399.600, 641.036 387.427 C 628.458 375.254, 628.020 374.919, 626.052 375.972 C 625.112 376.475, 611.887 389.544, 596.662 405.015 C 576.807 425.191, 569.204 433.541, 569.768 434.550 C 570.636 436.101, 584.359 450.167, 638.985 505.500 C 678.480 545.505, 680 547.420, 680 557.168 C 680 561.595, 679.360 563.680, 676.591 568.278 C 672.490 575.090, 669.221 578.124, 662.215 581.627 C 657.355 584.056, 656.307 584.213, 649.215 583.572 C 644.689 583.163, 640.460 582.177, 638.984 581.187 C 637.600 580.259, 624.333 567.125, 609.501 552 C 594.669 536.875, 570.945 512.854, 556.781 498.621 L 531.027 472.742 527.646 475.321 C 521.632 479.908, 469.651 533.915, 466.725 538.617 L 463.888 543.174 472.340 560.337 C 480.915 577.751, 489.426 591.277, 501.982 607.445 C 505.803 612.365, 510.261 618.890, 511.889 621.945 C 514.341 626.549, 521.932 650.002, 526.307 666.494 C 527.727 671.845, 535.274 679.179, 541.112 680.878 C 543.525 681.581, 548.425 683.457, 552 685.046 C 566.586 691.533, 610.095 707, 613.755 707 C 618.207 707, 621.422 705.018, 623.506 700.989 C 625.496 697.141, 625.355 692.708, 623.021 685.734 C 621.960 682.563, 620.734 678.063, 620.296 675.734 C 619.127 669.517, 619.484 643.647, 620.855 635.180 C 622.350 625.946, 627.495 613.572, 631.507 609.560 C 636.337 604.730, 648.032 595.468, 674.247 575.711 C 707.461 550.679, 724.525 538.674, 744.500 526.286 C 753.850 520.488, 762.796 514.564, 764.379 513.122 C 769.813 508.174, 772.262 500.753, 779.064 468.631 C 782.311 453.295, 782.670 446.107, 780.583 438.265 C 779.194 433.048, 774.120 423.098, 768.975 415.500 C 765.076 409.743, 760.397 400.162, 758.950 394.975 C 758.082 391.862, 757.748 382.738, 757.851 364.994 C 757.934 350.816, 757.565 337.969, 757.020 336.069 C 755.869 332.055, 751.356 327, 748.924 327 C 747.988 327, 746.345 327.788, 745.273 328.750 M 379.904 354.750 C 359.533 375.635, 339.497 397.772, 328.007 412.089 C 323.301 417.953, 322.555 419.303, 322.906 421.324 C 322.985 421.778, 322.588 421.864, 322.025 421.515 C 321.461 421.167, 321 421.340, 321 421.901 C 321 422.461, 319.218 424.737, 317.040 426.960 C 313.229 430.847, 312.837 431, 306.674 431 C 299.240 431, 296.157 429.188, 292.972 422.945 C 290.574 418.244, 290.470 411.972, 292.634 402.500 C 293.514 398.650, 294.460 393.999, 294.736 392.164 L 295.239 388.828 260.533 389.164 L 225.827 389.500 223.413 392.306 C 222.086 393.849, 221 396.207, 221 397.545 C 221 400.612, 223.237 403.059, 261.043 441.340 C 277.794 458.302, 292.490 473.827, 293.700 475.840 C 294.981 477.971, 296.957 484.820, 298.432 492.238 C 299.824 499.244, 301.649 506.616, 302.486 508.622 C 303.324 510.627, 307.945 516.304, 312.755 521.237 C 335.111 544.168, 352.870 550.117, 365.107 538.777 C 366.481 537.503, 369.565 532.870, 371.960 528.481 C 375.892 521.275, 380.928 513.624, 384.998 508.672 C 385.824 507.666, 388.472 505.676, 390.883 504.249 C 396.637 500.843, 408.054 500.002, 416.239 502.381 L 421.807 504 446.251 479.250 C 476.903 448.214, 490.500 433.992, 490.500 432.965 C 490.500 432.124, 463.490 403.999, 428.349 368.250 C 411.560 351.170, 406.940 347, 404.807 347 C 403.348 347, 400.816 345.875, 399.182 344.500 C 397.548 343.125, 395.340 342, 394.276 342 C 393.114 342, 387.373 347.092, 379.904 354.750 M 640.823 626.702 C 637.447 627.227, 636.560 628.385, 635.174 634.076 C 631.833 647.786, 631.581 666.438, 634.693 669.550 C 635.929 670.786, 645.565 671, 700.111 671 C 763.045 671, 764.146 670.966, 768.180 668.908 C 777.257 664.277, 778.183 661.747, 777.891 642.362 C 777.715 630.682, 777.345 626.963, 776.321 626.570 C 774.744 625.965, 644.750 626.092, 640.823 626.702 M 248.750 628.106 C 247.221 628.974, 247.001 630.769, 247.006 642.300 C 247.009 649.560, 247.470 657.150, 248.030 659.168 C 249.265 663.616, 254.580 668.512, 259.723 669.940 C 263.665 671.035, 508.453 671.531, 511.270 670.450 C 513.080 669.755, 512.804 668.144, 507.860 650.500 C 502.992 633.125, 501.459 629.530, 498.309 628.095 C 495.033 626.602, 251.381 626.613, 248.750 628.106 M 362 689.023 C 299.575 689.311, 248.352 689.649, 248.171 689.773 C 247.433 690.281, 249.221 702.838, 250.694 707.500 C 253.067 715.010, 255.691 719.709, 260.321 724.740 C 265.385 730.242, 269.816 733.108, 276.688 735.326 C 281.477 736.871, 299.348 736.999, 509.188 736.992 C 662.074 736.987, 738.628 736.643, 743 735.942 C 746.575 735.369, 752.421 733.460, 755.990 731.700 C 767.743 725.905, 775.768 711.586, 776.278 695.500 L 776.500 688.500 709.500 688.224 C 672.650 688.072, 641.487 688.194, 640.250 688.493 C 638.265 688.974, 638 689.668, 638 694.393 C 638 705.278, 631.938 715.059, 622.742 719.016 C 616.064 721.888, 606.896 721.344, 598.920 717.602 C 592.906 714.781, 564.398 703.373, 544.827 695.956 C 537.857 693.314, 531.107 690.556, 529.827 689.826 C 527.104 688.274, 525.814 688.268, 362 689.023 M 291.500 758.927 C 285.940 759.458, 285.478 759.692, 285.196 762.126 C 284.548 767.709, 299.509 780.838, 310.500 784.332 C 322.146 788.035, 324.816 788.079, 517.500 787.787 L 706.500 787.500 714.500 784.087 C 721.145 781.253, 723.794 779.372, 730.136 772.985 C 738.207 764.857, 739.946 761.845, 737.953 759.443 C 736.896 758.169, 708.648 758.006, 517.120 758.168 C 396.329 758.270, 294.800 758.612, 291.500 758.927" stroke="none" fill="#fffeff" fill-rule="evenodd"/><path d="M 609.966 246.750 L 604.500 252.500 610.250 247.034 C 613.413 244.028, 616 241.440, 616 241.284 C 616 240.542, 615.044 241.408, 609.966 246.750 M 351 249.622 C 344.586 254.639, 343.661 255.906, 349.295 251.957 C 353.499 249.010, 356.962 245.901, 355.872 246.051 C 355.668 246.080, 353.475 247.687, 351 249.622 M 745.370 277 C 745.370 282.775, 745.535 285.137, 745.737 282.250 C 745.939 279.363, 745.939 274.637, 745.737 271.750 C 745.535 268.863, 745.370 271.225, 745.370 277 M 549.799 294 C 552.267 297.263, 577.998 323.168, 577.970 322.361 C 577.953 321.887, 571.352 314.975, 563.301 307 C 555.251 299.025, 549.175 293.175, 549.799 294 M 575 302.500 C 580.203 307.725, 584.685 312, 584.960 312 C 585.235 312, 581.203 307.725, 576 302.500 C 570.797 297.275, 566.315 293, 566.040 293 C 565.765 293, 569.797 297.275, 575 302.500 M 351.917 314.224 C 347.442 319.885, 341.057 329.124, 342.741 327.500 C 344.376 325.924, 356.930 309, 356.465 309 C 356.235 309, 354.188 311.351, 351.917 314.224 M 639 318.500 C 634.903 322.625, 631.775 326, 632.050 326 C 632.325 326, 635.903 322.625, 640 318.500 C 644.097 314.375, 647.225 311, 646.950 311 C 646.675 311, 643.097 314.375, 639 318.500 M 460.500 326 C 467.083 332.600, 472.694 338, 472.969 338 C 473.244 338, 468.083 332.600, 461.500 326 C 454.917 319.400, 449.306 314, 449.031 314 C 448.756 314, 453.917 319.400, 460.500 326 M 582.737 328 C 584.712 330.200, 586.652 332, 587.049 332 C 587.445 332, 586.124 330.200, 584.113 328 C 582.102 325.800, 580.162 324, 579.801 324 C 579.441 324, 580.762 325.800, 582.737 328 M 445 327.581 C 445 328.121, 447.796 331.249, 451.212 334.531 L 457.424 340.500 452.037 334.500 C 449.075 331.200, 446.279 328.072, 445.825 327.550 C 445.307 326.953, 445 326.965, 445 327.581 M 602.750 331.048 C 604.538 332.999, 606 335.091, 606 335.696 C 606 336.302, 602.794 340.330, 598.876 344.649 L 591.751 352.500 599.376 344.770 C 603.569 340.518, 607 336.444, 607 335.716 C 607 334.988, 605.313 332.842, 603.250 330.946 L 599.500 327.500 602.750 331.048 M 377.473 337.250 L 370.500 344.500 377.750 337.527 C 384.484 331.050, 385.457 330, 384.723 330 C 384.571 330, 381.308 333.262, 377.473 337.250 M 758.343 344.500 C 758.346 348.900, 758.522 350.576, 758.733 348.224 C 758.945 345.872, 758.942 342.272, 758.727 340.224 C 758.512 338.176, 758.339 340.100, 758.343 344.500 M 478.510 343.914 C 485.679 351.844, 491.233 357.303, 490.177 355.382 C 489.607 354.347, 485.851 350.350, 481.830 346.500 C 477.809 342.650, 476.315 341.486, 478.510 343.914 M 470 353.500 C 475.203 358.725, 479.685 363, 479.960 363 C 480.235 363, 476.203 358.725, 471 353.500 C 465.797 348.275, 461.315 344, 461.040 344 C 460.765 344, 464.797 348.275, 470 353.500 M 705.500 368.794 C 692.850 381.282, 686.100 388.268, 690.500 384.318 C 698.703 376.955, 729.865 345.965, 728.988 346.044 C 728.720 346.068, 718.150 356.305, 705.500 368.794 M 570.971 353.750 L 564.500 360.500 571.250 354.029 C 574.962 350.470, 578 347.432, 578 347.279 C 578 346.543, 576.982 347.480, 570.971 353.750 M 758.407 369 C 758.407 378.075, 758.559 381.788, 758.744 377.250 C 758.929 372.712, 758.929 365.288, 758.744 360.750 C 758.559 356.212, 758.407 359.925, 758.407 369 M 614.982 366.750 L 604.500 377.500 615.250 367.018 C 625.235 357.282, 626.454 356, 625.732 356 C 625.585 356, 620.747 360.837, 614.982 366.750 M 693.477 364.250 L 685.500 372.500 693.750 364.523 C 701.412 357.115, 702.456 356, 701.727 356 C 701.576 356, 697.864 359.712, 693.477 364.250 M 550.985 373.750 L 538.500 386.500 551.250 374.015 C 563.093 362.418, 564.453 361, 563.735 361 C 563.589 361, 557.852 366.738, 550.985 373.750 M 645.470 373.970 C 649.828 378.353, 653.543 381.790, 653.726 381.607 C 654.121 381.212, 638.882 366, 638.091 366 C 637.792 366, 641.112 369.586, 645.470 373.970 M 445 384.500 C 454.062 393.575, 461.702 401, 461.977 401 C 462.252 401, 455.062 393.575, 446 384.500 C 436.938 375.425, 429.298 368, 429.023 368 C 428.748 368, 435.938 375.425, 445 384.500 M 488.931 372.843 C 493.331 378.884, 528.824 413.221, 530.132 412.702 C 531.178 412.286, 531.132 412.139, 529.939 412.079 C 529.080 412.036, 519.066 402.592, 507.687 391.093 C 496.307 379.594, 487.867 371.381, 488.931 372.843 M 513.565 380.352 C 517.929 384.945, 522.175 389.017, 523 389.400 C 523.825 389.784, 520.459 386.025, 515.521 381.049 C 510.582 376.072, 506.337 372, 506.086 372 C 505.835 372, 509.201 375.758, 513.565 380.352 M 614.982 384.750 L 604.500 395.500 615.250 385.018 C 625.235 375.282, 626.454 374, 625.732 374 C 625.585 374, 620.747 378.837, 614.982 384.750 M 676.469 380.250 L 670.500 386.500 676.750 380.531 C 680.188 377.249, 683 374.436, 683 374.281 C 683 373.542, 682.013 374.444, 676.469 380.250 M 631.477 376.962 C 632.066 377.916, 648.524 394.068, 649.823 394.969 C 650.196 395.226, 646.234 391.064, 641.020 385.719 C 632.050 376.523, 630.099 374.733, 631.477 376.962 M 581.989 399.750 L 564.500 417.500 582.250 400.011 C 592.013 390.392, 600 382.404, 600 382.261 C 600 381.548, 598.238 383.259, 581.989 399.750 M 244.312 388.748 C 253.009 388.915, 266.959 388.915, 275.312 388.748 C 283.666 388.581, 276.550 388.444, 259.500 388.445 C 242.450 388.445, 235.616 388.582, 244.312 388.748 M 484 407.466 C 491.425 415.147, 497.613 421.634, 497.750 421.882 C 497.887 422.130, 498.209 422.124, 498.465 421.868 C 498.721 421.613, 492.533 415.125, 484.715 407.452 L 470.500 393.500 484 407.466 M 540.479 403.250 L 531.500 412.500 540.750 403.521 C 549.341 395.181, 550.455 394, 549.729 394 C 549.580 394, 545.418 398.163, 540.479 403.250 M 586.767 413.250 C 566.912 433.923, 565.936 435.037, 577.353 424 C 586.375 415.279, 604.569 396, 603.778 396 C 603.534 396, 595.880 403.762, 586.767 413.250 M 232 413.500 C 238.307 419.825, 243.692 425, 243.967 425 C 244.242 425, 239.307 419.825, 233 413.500 C 226.693 407.175, 221.308 402, 221.033 402 C 220.758 402, 225.693 407.175, 232 413.500 M 476 415.775 C 476 416.201, 479.486 419.914, 483.748 424.025 C 491.825 431.818, 491.741 431.718, 477.750 416.859 C 476.788 415.836, 476 415.349, 476 415.775 M 557.159 424.413 C 553.020 428.723, 551.028 431.593, 551.086 433.163 C 551.162 435.223, 551.276 435.152, 552.048 432.567 C 552.531 430.954, 555.515 427.016, 558.681 423.817 C 561.847 420.618, 564.185 418, 563.877 418 C 563.569 418, 560.546 420.886, 557.159 424.413 M 504.083 427.637 C 506.512 430.462, 508.703 432.584, 508.952 432.352 C 509.200 432.120, 507.213 429.808, 504.535 427.215 L 499.666 422.500 504.083 427.637 M 494.487 449.250 L 480.500 463.500 494.750 449.513 C 507.988 436.520, 509.453 435, 508.737 435 C 508.592 435, 502.179 441.413, 494.487 449.250 M 475.469 450.250 L 469.500 456.500 475.750 450.531 C 481.556 444.987, 482.458 444, 481.719 444 C 481.564 444, 478.751 446.813, 475.469 450.250 M 565.463 449.814 C 568.743 453.216, 571.613 456, 571.841 456 C 572.562 456, 563.676 446.563, 561.543 445.064 C 560.419 444.275, 562.184 446.412, 565.463 449.814 M 519.479 463.221 C 514.541 468.293, 511.794 471.331, 513.377 469.971 C 514.959 468.612, 518.784 464.860, 521.877 461.633 C 524.969 458.406, 528.400 455.397, 529.500 454.946 C 530.844 454.396, 531.001 454.106, 529.979 454.063 C 529.143 454.029, 524.418 458.150, 519.479 463.221 M 596.500 464 C 600.874 468.400, 604.678 472, 604.953 472 C 605.228 472, 601.874 468.400, 597.500 464 C 593.126 459.600, 589.322 456, 589.047 456 C 588.772 456, 592.126 459.600, 596.500 464 M 584 468.500 C 589.203 473.725, 593.685 478, 593.960 478 C 594.235 478, 590.203 473.725, 585 468.500 C 579.797 463.275, 575.315 459, 575.040 459 C 574.765 459, 578.797 463.275, 584 468.500 M 451.010 493.500 L 427.521 517.500 451.467 493.790 C 464.638 480.750, 475.208 469.950, 474.957 469.790 C 474.706 469.631, 463.930 480.300, 451.010 493.500 M 619 487.500 C 624.203 492.725, 628.685 497, 628.960 497 C 629.235 497, 625.203 492.725, 620 487.500 C 614.797 482.275, 610.315 478, 610.040 478 C 609.765 478, 613.797 482.275, 619 487.500 M 563.562 486.991 C 568.489 492.846, 580.364 504.969, 580.773 504.561 C 580.984 504.349, 576.537 499.524, 570.890 493.838 C 565.244 488.152, 561.946 485.071, 563.562 486.991 M 608.994 493.500 C 611.973 496.800, 625.775 510.975, 639.665 525 C 653.555 539.025, 665.642 551.400, 666.525 552.500 C 667.408 553.600, 667.763 553.768, 667.315 552.872 C 666.867 551.977, 652.342 536.902, 635.038 519.372 C 617.734 501.843, 606.014 490.200, 608.994 493.500 M 564.953 506.267 C 574.002 515.431, 581.539 522.794, 581.703 522.630 C 582.065 522.268, 560.471 500.451, 553.500 494.136 C 550.750 491.644, 555.904 497.104, 564.953 506.267 M 480.281 502.250 C 475.619 506.788, 469.958 512.750, 467.699 515.500 C 464.606 519.266, 465.280 518.772, 470.429 513.500 C 474.188 509.650, 480.137 503.688, 483.647 500.250 C 487.157 496.813, 489.742 494, 489.392 494 C 489.042 494, 484.942 497.712, 480.281 502.250 M 638 506.500 C 641.543 510.075, 644.667 513, 644.942 513 C 645.217 513, 642.543 510.075, 639 506.500 C 635.457 502.925, 632.333 500, 632.058 500 C 631.783 500, 634.457 502.925, 638 506.500 M 493.531 507.688 C 485.104 516.250, 484.630 517.456, 492.808 509.527 C 496.764 505.692, 500 502.429, 500 502.277 C 500 501.378, 498.533 502.605, 493.531 507.688 M 658.986 527.250 C 671.514 540.023, 673 541.453, 673 540.736 C 673 540.591, 666.813 534.403, 659.250 526.986 L 645.500 513.500 658.986 527.250 M 595 536.500 C 601.858 543.375, 607.695 549, 607.970 549 C 608.245 549, 602.858 543.375, 596 536.500 C 589.142 529.625, 583.305 524, 583.030 524 C 582.755 524, 588.142 529.625, 595 536.500 M 406.982 537.750 L 396.500 548.500 407.250 538.018 C 413.163 532.253, 418 527.415, 418 527.268 C 418 526.546, 416.718 527.765, 406.982 537.750 M 451.727 531.312 C 449.652 533.499, 448.107 535.440, 448.292 535.626 C 448.478 535.811, 450.371 534.180, 452.500 532 C 454.629 529.820, 456.174 527.879, 455.935 527.687 C 455.696 527.494, 453.802 529.126, 451.727 531.312 M 619.536 544.250 C 627.766 552.638, 637.200 561.956, 640.500 564.958 C 643.800 567.960, 637.279 561.097, 626.009 549.708 C 614.739 538.319, 605.305 529, 605.045 529 C 604.785 529, 611.306 535.862, 619.536 544.250 M 438.966 544.750 L 433.500 550.500 439.250 545.034 C 444.592 539.956, 445.458 539, 444.716 539 C 444.560 539, 441.972 541.587, 438.966 544.750 M 613.109 554.750 C 615.524 557.362, 620.875 562.637, 625 566.471 C 629.440 570.598, 627.815 568.661, 621.016 561.721 C 609.404 549.869, 605.037 546.019, 613.109 554.750 M 489.602 593 C 490.637 595.002, 501.102 608, 501.679 608 C 501.929 608, 499.965 605.269, 497.316 601.930 C 490.550 593.403, 488.708 591.271, 489.602 593 M 661.750 625.749 C 672.888 625.910, 691.113 625.910, 702.250 625.749 C 713.388 625.588, 704.275 625.456, 682 625.456 C 659.725 625.456, 650.613 625.588, 661.750 625.749 M 735.191 625.747 C 742.171 625.918, 753.871 625.919, 761.191 625.748 C 768.511 625.577, 762.800 625.436, 748.500 625.436 C 734.200 625.435, 728.211 625.575, 735.191 625.747 M 291.325 626.750 C 314.328 626.900, 351.678 626.899, 374.325 626.750 C 396.971 626.600, 378.150 626.477, 332.500 626.477 C 286.850 626.477, 268.321 626.600, 291.325 626.750 M 266.750 671.723 C 268.538 671.945, 271.462 671.945, 273.250 671.723 C 275.038 671.502, 273.575 671.320, 270 671.320 C 266.425 671.320, 264.962 671.502, 266.750 671.723 M 332.750 671.723 C 334.538 671.945, 337.462 671.945, 339.250 671.723 C 341.038 671.502, 339.575 671.320, 336 671.320 C 332.425 671.320, 330.962 671.502, 332.750 671.723 M 361.186 671.748 C 370.363 671.913, 385.663 671.913, 395.186 671.749 C 404.709 671.584, 397.200 671.449, 378.500 671.449 C 359.800 671.449, 352.009 671.583, 361.186 671.748 M 415.750 671.723 C 417.538 671.945, 420.462 671.945, 422.250 671.723 C 424.038 671.502, 422.575 671.320, 419 671.320 C 415.425 671.320, 413.962 671.502, 415.750 671.723 M 433.296 671.744 C 437.583 671.932, 444.333 671.931, 448.296 671.742 C 452.258 671.552, 448.750 671.399, 440.500 671.400 C 432.250 671.401, 429.008 671.556, 433.296 671.744 M 668.322 671.750 C 684.723 671.904, 711.273 671.904, 727.322 671.749 C 743.370 671.595, 729.950 671.469, 697.500 671.469 C 665.050 671.469, 651.920 671.595, 668.322 671.750 M 479.250 687.739 C 482.413 687.937, 487.587 687.937, 490.750 687.739 C 493.913 687.541, 491.325 687.378, 485 687.378 C 478.675 687.378, 476.087 687.541, 479.250 687.739 M 260.750 688.747 C 267.488 688.920, 278.512 688.920, 285.250 688.747 C 291.988 688.574, 286.475 688.432, 273 688.432 C 259.525 688.432, 254.012 688.574, 260.750 688.747 M 301.776 688.733 C 304.128 688.945, 307.728 688.942, 309.776 688.727 C 311.824 688.512, 309.900 688.339, 305.500 688.343 C 301.100 688.346, 299.424 688.522, 301.776 688.733 M 328.813 737.749 C 337.785 737.914, 352.185 737.914, 360.813 737.748 C 369.441 737.581, 362.100 737.446, 344.500 737.446 C 326.900 737.447, 319.841 737.583, 328.813 737.749 M 387.280 737.736 C 389.909 737.943, 393.959 737.940, 396.280 737.731 C 398.601 737.521, 396.450 737.352, 391.500 737.355 C 386.550 737.358, 384.651 737.530, 387.280 737.736 M 403.728 737.722 C 405.503 737.943, 408.653 737.946, 410.728 737.730 C 412.802 737.513, 411.350 737.333, 407.500 737.328 C 403.650 737.324, 401.952 737.501, 403.728 737.722 M 458.789 737.741 C 462.248 737.937, 467.648 737.936, 470.789 737.738 C 473.930 737.540, 471.100 737.380, 464.500 737.382 C 457.900 737.384, 455.330 737.546, 458.789 737.741 M 510.822 737.750 C 528.049 737.903, 555.949 737.903, 572.822 737.749 C 589.695 737.596, 575.600 737.470, 541.500 737.470 C 507.400 737.470, 493.595 737.596, 510.822 737.750 M 623.813 737.749 C 632.785 737.914, 647.185 737.914, 655.813 737.748 C 664.441 737.581, 657.100 737.446, 639.500 737.446 C 621.900 737.447, 614.841 737.583, 623.813 737.749 M 691.750 737.723 C 693.538 737.945, 696.462 737.945, 698.250 737.723 C 700.038 737.502, 698.575 737.320, 695 737.320 C 691.425 737.320, 689.962 737.502, 691.750 737.723 M 707.287 737.740 C 710.469 737.939, 715.419 737.937, 718.287 737.736 C 721.154 737.535, 718.550 737.372, 712.500 737.374 C 706.450 737.376, 704.104 737.541, 707.287 737.740 M 727.750 737.732 C 730.087 737.943, 733.913 737.943, 736.250 737.732 C 738.587 737.522, 736.675 737.349, 732 737.349 C 727.325 737.349, 725.413 737.522, 727.750 737.732 M 316.250 757.749 C 328.213 757.908, 347.788 757.908, 359.750 757.749 C 371.713 757.589, 361.925 757.459, 338 757.459 C 314.075 757.459, 304.288 757.589, 316.250 757.749 M 400.250 757.748 C 410.013 757.912, 425.988 757.912, 435.750 757.748 C 445.513 757.585, 437.525 757.451, 418 757.451 C 398.475 757.451, 390.488 757.585, 400.250 757.748 M 457.250 757.728 C 459.313 757.944, 462.688 757.944, 464.750 757.728 C 466.813 757.513, 465.125 757.336, 461 757.336 C 456.875 757.336, 455.188 757.513, 457.250 757.728 M 472.250 757.728 C 474.313 757.944, 477.688 757.944, 479.750 757.728 C 481.813 757.513, 480.125 757.336, 476 757.336 C 471.875 757.336, 470.188 757.513, 472.250 757.728 M 508.280 757.736 C 510.909 757.943, 514.959 757.940, 517.280 757.731 C 519.601 757.521, 517.450 757.352, 512.500 757.355 C 507.550 757.358, 505.651 757.530, 508.280 757.736 M 730.552 773.821 L 724.604 780.500 729.877 775.500 C 734.215 771.387, 738.002 766.767, 736.785 767.071 C 736.628 767.111, 733.823 770.148, 730.552 773.821 M 326.750 788.737 C 329.637 788.939, 334.363 788.939, 337.250 788.737 C 340.137 788.535, 337.775 788.370, 332 788.370 C 326.225 788.370, 323.863 788.535, 326.750 788.737 M 381.280 788.736 C 383.909 788.943, 387.959 788.940, 390.280 788.731 C 392.601 788.521, 390.450 788.352, 385.500 788.355 C 380.550 788.358, 378.651 788.530, 381.280 788.736 M 425.789 788.741 C 429.248 788.937, 434.648 788.936, 437.789 788.738 C 440.930 788.540, 438.100 788.380, 431.500 788.382 C 424.900 788.384, 422.330 788.546, 425.789 788.741 M 446.750 788.723 C 448.538 788.945, 451.462 788.945, 453.250 788.723 C 455.038 788.502, 453.575 788.320, 450 788.320 C 446.425 788.320, 444.962 788.502, 446.750 788.723 M 459.728 788.722 C 461.503 788.943, 464.653 788.946, 466.728 788.730 C 468.802 788.513, 467.350 788.333, 463.500 788.328 C 459.650 788.324, 457.952 788.501, 459.728 788.722 M 484.750 788.732 C 487.087 788.943, 490.913 788.943, 493.250 788.732 C 495.587 788.522, 493.675 788.349, 489 788.349 C 484.325 788.349, 482.413 788.522, 484.750 788.732 M 517.250 788.742 C 520.962 788.934, 527.038 788.934, 530.750 788.742 C 534.462 788.549, 531.425 788.392, 524 788.392 C 516.575 788.392, 513.538 788.549, 517.250 788.742 M 554.776 788.733 C 557.128 788.945, 560.728 788.942, 562.776 788.727 C 564.824 788.512, 562.900 788.339, 558.500 788.343 C 554.100 788.346, 552.424 788.522, 554.776 788.733 M 570.776 788.733 C 573.128 788.945, 576.728 788.942, 578.776 788.727 C 580.824 788.512, 578.900 788.339, 574.500 788.343 C 570.100 788.346, 568.424 788.522, 570.776 788.733 M 589.750 788.740 C 593.188 788.936, 598.813 788.936, 602.250 788.740 C 605.688 788.545, 602.875 788.385, 596 788.385 C 589.125 788.385, 586.313 788.545, 589.750 788.740 M 613.250 788.735 C 615.862 788.941, 620.138 788.941, 622.750 788.735 C 625.362 788.529, 623.225 788.360, 618 788.360 C 612.775 788.360, 610.638 788.529, 613.250 788.735 M 632.280 788.736 C 634.909 788.943, 638.959 788.940, 641.280 788.731 C 643.601 788.521, 641.450 788.352, 636.500 788.355 C 631.550 788.358, 629.651 788.530, 632.280 788.736" stroke="none" fill="#e4e4ec" fill-rule="evenodd"/></svg>